<svg width="24" height="24" viewBox="0 0 24 24" fill="none" xmlns="http://www.w3.org/2000/svg">
<g clip-path="url(#clip0_237_1308)">
<path fill-rule="evenodd" clip-rule="evenodd" d="M24 3C24 1.34423 22.6558 0 21 0H3C1.34423 0 0 1.34423 0 3V21C0 22.6558 1.34423 24 3 24H21C22.6558 24 24 22.6558 24 21V3Z" fill="white"/>
<path d="M6.88157 8.37402H2.86157V20.466H6.88157V8.37402Z" fill="white"/>
<path d="M4.899 2.54395C3.52364 2.54395 2.625 3.44816 2.625 4.6333C2.625 5.79355 3.49631 6.72271 4.8458 6.72271H4.87177C6.27347 6.72271 7.14595 5.79355 7.14595 4.6333C7.11994 3.44816 6.27356 2.54395 4.899 2.54395Z" fill="white"/>
<path d="M16.7475 8.08984C14.6151 8.08984 13.66 9.26252 13.1252 10.0862V8.37419H9.1062C9.1595 9.50842 9.1062 20.4661 9.1062 20.4661H13.1251V13.7131C13.1251 13.3517 13.1511 12.9903 13.2576 12.732C13.5477 12.0101 14.2094 11.2623 15.3198 11.2623C16.7735 11.2623 17.3559 12.3716 17.3559 13.9964V20.4661H21.375V13.5319C21.375 9.81766 19.3919 8.08984 16.7475 8.08984Z" fill="white"/>
<path d="M17.7545 20.8455H20.4985C20.7056 20.8455 20.8735 20.6776 20.8735 20.4706L20.8749 14.6729C20.8749 11.6426 20.222 9.31332 16.6807 9.31332C15.3346 9.26333 14.0651 9.95724 13.3801 11.116C13.3747 11.1252 13.3649 11.1308 13.3542 11.1308C13.3377 11.1308 13.3243 11.1174 13.3243 11.1009V9.96812C13.3243 9.76103 13.1565 9.59314 12.9493 9.59314H10.3452C10.1381 9.59314 9.97021 9.76103 9.97021 9.96812V20.47C9.97021 20.6772 10.1381 20.845 10.3452 20.845H13.0891C13.2962 20.845 13.4641 20.6772 13.4641 20.47V15.2788C13.4641 13.8109 13.7425 12.3894 15.5623 12.3894C17.3562 12.3894 17.3795 14.069 17.3795 15.3738V20.4705C17.3795 20.6776 17.5474 20.8455 17.7545 20.8455Z" fill="black"/>
<path d="M4 6.02758C4 7.13988 4.9157 8.05505 6.02801 8.05505C7.1401 8.05495 8.05517 7.13925 8.05517 6.02716C8.05495 4.91507 7.13978 4 6.02758 4C4.91528 4 4 4.91528 4 6.02758Z" fill="black"/>
<path d="M4.65234 20.8455H7.39988C7.607 20.8455 7.77488 20.6776 7.77488 20.4705V9.96812C7.77488 9.76104 7.607 9.59314 7.39988 9.59314H4.65234C4.44524 9.59314 4.27734 9.76104 4.27734 9.96812V20.4705C4.27734 20.6776 4.44524 20.8455 4.65234 20.8455Z" fill="black"/>
</g>
<defs>
<clipPath id="clip0_237_1308">
<rect width="24" height="24" fill="white"/>
</clipPath>
</defs>
</svg>
