<svg width="32" height="32" viewBox="0 0 32 32" fill="none" xmlns="http://www.w3.org/2000/svg">
<path fill-rule="evenodd" clip-rule="evenodd" d="M3.9502 21.2985L17.1322 8.1165L23.8842 14.8685L14.0782 24.6745L10.7022 28.0505C10.7002 28.0525 9.94621 28.7505 8.48621 29.0245C6.40821 29.4185 4.8982 29.7025 3.4422 29.9785C3.0282 30.0565 2.6122 29.9225 2.3222 29.6785C2.0782 29.3885 1.9442 28.9725 2.0222 28.5585C2.2982 27.1025 2.5822 25.5925 2.9762 23.5145C3.2502 22.0565 3.94621 21.3045 3.9502 21.2985ZM5.9702 23.1305C5.9782 23.1205 5.9882 23.1105 5.9962 23.1025C6.2982 22.8005 6.7882 22.8005 7.0902 23.1025L8.8982 24.9105C9.2002 25.2125 9.2002 25.7005 8.8982 26.0025L8.7802 26.1205C8.7802 26.1205 8.4562 26.4205 7.8282 26.5385C6.9362 26.7085 6.2882 26.8305 5.6622 26.9485C5.4842 26.9825 5.3042 26.9245 5.1802 26.8205C5.0762 26.6965 5.0182 26.5165 5.0522 26.3385C5.1702 25.7125 5.2922 25.0645 5.4622 24.1725C5.5802 23.5445 5.8802 23.2205 5.8802 23.2205L5.9702 23.1305ZM25.4922 2.5865C24.7122 1.8045 23.4442 1.8045 22.6642 2.5865L20.0002 5.2485L26.7522 12.0005L29.4142 9.3365C30.1962 8.5565 30.1962 7.2885 29.4142 6.5085L25.4922 2.5865Z" fill="#333333"/>
</svg>
