<svg width="24" height="24" viewBox="0 0 24 24" fill="none" xmlns="http://www.w3.org/2000/svg">
<path fill-rule="evenodd" clip-rule="evenodd" d="M18.3841 21.7795C18.5427 21.8924 18.7265 21.9646 18.9195 21.9899C19.1125 22.0152 19.3088 21.9928 19.4911 21.9245C19.6723 21.8561 19.8335 21.7434 19.9599 21.5967C20.0864 21.4499 20.1741 21.2739 20.2151 21.0845C21.0841 17.0005 23.192 6.66333 23.983 2.94828C24.0123 2.81023 24.0036 2.66682 23.9578 2.53333C23.912 2.39984 23.8309 2.28128 23.723 2.19027C23.6146 2.09819 23.4836 2.03667 23.3435 2.01206C23.2034 1.98746 23.0593 2.00064 22.926 2.05026C18.7331 3.60229 5.82024 8.44735 0.542301 10.4004C0.37966 10.46 0.239851 10.5692 0.142605 10.7126C0.0453585 10.8559 -0.00441532 11.0262 0.000307548 11.1994C0.0123074 11.5534 0.250305 11.8604 0.5933 11.9634C2.96027 12.6714 6.06723 13.6564 6.06723 13.6564C6.06723 13.6564 7.51922 18.0415 8.27621 20.2715C8.37121 20.5515 8.5902 20.7715 8.8792 20.8475C9.02086 20.8844 9.16954 20.8847 9.31136 20.8485C9.45319 20.8123 9.58352 20.7408 9.69019 20.6405L12.7862 17.7175C12.7862 17.7175 16.3581 20.3365 18.3841 21.7795ZM7.37422 13.1024L9.0532 18.6405L9.42619 15.1334L19.6111 5.94732C19.6634 5.90038 19.6959 5.83533 19.702 5.76533C19.7081 5.69533 19.6874 5.62562 19.6441 5.57031C19.6005 5.51488 19.5379 5.47763 19.4684 5.4658C19.3989 5.45397 19.3275 5.46841 19.2681 5.50631L7.37422 13.1024Z" fill="white"/>
</svg>
