<svg width="32" height="32" viewBox="0 0 32 32" fill="none" xmlns="http://www.w3.org/2000/svg">
<path fill-rule="evenodd" clip-rule="evenodd" d="M29.332 26.5942C30.114 27.3742 30.114 28.6422 29.332 29.4222C28.552 30.2022 27.286 30.2022 26.504 29.4222L22.202 25.1182C21.422 24.3382 21.422 23.0702 22.202 22.2902C22.982 21.5102 24.25 21.5102 25.03 22.2902L29.332 26.5942ZM11.098 18.0482L26.562 2.58216C26.952 2.19216 27.586 2.19216 27.976 2.58216C30.708 5.31416 30.708 9.75016 27.976 12.4822L16.754 23.7042C15.974 24.4862 14.706 24.4862 13.926 23.7042L12.512 22.2902L5.394 29.4082C4.614 30.1882 3.346 30.1882 2.566 29.4082C1.786 28.6282 1.786 27.3602 2.566 26.5802L11.098 18.0482ZM10.75 7.09216L7.666 4.00816C7.204 3.54816 7.204 2.80016 7.666 2.33816C8.126 1.87816 8.874 1.87816 9.336 2.33816L11.096 4.10016L11.098 4.09816L13.072 6.07216C15.022 8.02416 15.022 11.1922 13.072 13.1442C11.12 15.0962 7.952 15.0962 6 13.1442L4.026 11.1702L2.334 9.47616C1.854 8.99816 1.854 8.22016 2.334 7.74216C2.812 7.26416 3.59 7.26416 4.068 7.74216L7.09 10.7642C7.364 11.0382 7.81 11.0382 8.084 10.7642C8.338 10.5082 8.356 10.1042 8.134 9.83016L4.21 5.90616C3.75 5.44416 3.75 4.69616 4.21 4.23416C4.672 3.77416 5.42 3.77416 5.88 4.23416L9.744 8.09816C10.022 8.37616 10.472 8.37616 10.75 8.09816C11.026 7.82016 11.026 7.37016 10.75 7.09216Z" fill="#333333"/>
</svg>
