<svg width="32" height="32" viewBox="0 0 32 32" fill="none" xmlns="http://www.w3.org/2000/svg">
<path fill-rule="evenodd" clip-rule="evenodd" d="M2 7C2 3.136 8.274 0 16 0C23.726 0 30 3.136 30 7V9C30 9.754 29.762 10.478 29.32 11.158C26.202 16.652 18.966 21.996 18.96 22V26.308C18.96 27.942 17.81 29.088 16.306 29.728C14.56 30.47 13.04 29.564 13.04 27.93V22C13.04 22 5.798 16.654 2.68 11.158C2.53 10.928 2.404 10.692 2.302 10.452C2.104 9.982 2 9.498 2 9V7ZM16 3.262C21.252 3.262 25.518 5.22 25.518 7.63C25.518 10.042 21.252 12 16 12C10.748 12 6.482 10.042 6.482 7.63C6.482 5.22 10.748 3.262 16 3.262Z" fill="#333333"/>
</svg>
