<svg width="32" height="32" viewBox="0 0 32 32" fill="none" xmlns="http://www.w3.org/2000/svg">
<path fill-rule="evenodd" clip-rule="evenodd" d="M16.57 25.5346C14.858 26.6686 11.962 28.5426 9.056 30.4226C8.604 30.8026 7.972 30.8966 7.34 30.6446C6.42 30.2766 6.236 29.3546 6.604 28.4346L8.998 19.4106L2.59 13.5426C2.242 13.2606 2 12.8366 2 12.4126C2 11.4926 2.736 10.9386 3.472 10.9386H11.818L15.184 3.08263C15.492 2.38263 16.048 1.99463 16.732 1.99463H16.748C17.424 2.00463 17.976 2.38663 18.28 3.08263L21.648 10.9386H29.992C30.728 10.9386 31.466 11.4926 31.466 12.4126C31.466 12.8366 31.222 13.2606 30.874 13.5426L24.468 19.4106L26.862 28.4346C27.23 29.3546 27.046 30.2766 26.124 30.6446C25.494 30.8966 24.862 30.8026 24.408 30.4226C21.41 28.4826 18.42 26.5466 16.732 25.4266L16.57 25.5346Z" fill="#2C2D2E"/>
</svg>
