<svg width="32" height="32" viewBox="0 0 32 32" fill="none" xmlns="http://www.w3.org/2000/svg">
<path fill-rule="evenodd" clip-rule="evenodd" d="M21.0802 24.0721C19.3315 25.2539 17.2258 25.9436 14.9589 25.9436C8.91115 25.9436 4 21.0266 4 14.9718C4 8.91693 8.91115 4 14.9589 4C21.0067 4 25.9178 8.91693 25.9178 14.9718C25.9178 17.2257 25.2368 19.3229 24.0704 21.0674L27.38 24.3793C28.2067 25.2069 28.2067 26.5517 27.38 27.3793C26.5534 28.2069 25.2102 28.2069 24.3836 27.3793L21.0802 24.0721ZM14.9589 7.88245C18.8681 7.88245 22.0399 11.058 22.0399 14.9718C22.0399 18.8856 18.8681 22.0611 14.9589 22.0611C11.0497 22.0611 7.87789 18.8856 7.87789 14.9718C7.87789 11.058 11.0497 7.88245 14.9589 7.88245Z" fill="#333333"/>
</svg>
